<svg width="18" height="18" viewBox="0 0 18 18" fill="none" xmlns="http://www.w3.org/2000/svg">
    <rect width="18" height="18" rx="9" fill="#3876D3"/>
    <path d="M14.209 7.91119C14.3116 7.60666 14.364 7.2878 14.3641 6.96685C14.3641 6.43576 14.2207 5.91427 13.9487 5.45597C13.4022 4.51737 12.3884 3.93789 11.2913 3.93789C11.0752 3.93789 10.8596 3.96041 10.6483 4.00508C10.364 3.68906 10.015 3.43608 9.62442 3.26284C9.23382 3.08959 8.81042 3.00001 8.38217 3H8.36294L8.35572 3.00004C7.02686 3.00004 5.8484 3.8461 5.43989 5.09338C5.01704 5.17883 4.61756 5.35243 4.26821 5.60254C3.91886 5.85266 3.62769 6.17353 3.41419 6.54367C3.14305 7.00473 3.00017 7.52828 3 8.06134C3.0001 8.81048 3.28194 9.53292 3.79094 10.0888C3.68819 10.3933 3.63579 10.7122 3.63575 11.0332C3.6358 11.5642 3.77917 12.0857 4.05113 12.544C4.37454 13.0996 4.86843 13.5395 5.46158 13.8003C6.05473 14.061 6.71649 14.1292 7.35142 13.9949C7.63574 14.3109 7.98472 14.5639 8.37535 14.7371C8.76597 14.9104 9.18936 15 9.61764 15H9.6369L9.6447 14.9999C10.9743 14.9999 12.1523 14.1539 12.5609 12.9055C12.9837 12.82 13.3832 12.6464 13.7326 12.3962C14.0819 12.1461 14.3731 11.8252 14.5866 11.4551C14.8574 10.9945 15.0001 10.4713 15 9.93876C14.9999 9.18966 14.7179 8.46704 14.209 7.91119ZM9.63768 14.2155H9.6345C9.10248 14.2153 8.58736 14.0312 8.17871 13.6951C8.20297 13.6822 8.22695 13.6687 8.25063 13.6548L10.6722 12.2747C10.7326 12.2407 10.7828 12.1916 10.8178 12.1323C10.8528 12.073 10.8712 12.0056 10.8712 11.937V8.56625L11.8948 9.1494C11.9002 9.15204 11.9048 9.15594 11.9083 9.16074C11.9117 9.1656 11.9139 9.17118 11.9147 9.17706V11.9666C11.9133 13.2069 10.8947 14.213 9.63768 14.2155ZM4.74084 12.1519C4.54082 11.8106 4.43543 11.4234 4.4353 11.0292C4.4353 10.9006 4.44668 10.7717 4.46885 10.645C4.48685 10.6557 4.51827 10.6746 4.54081 10.6874L6.96236 12.0675C7.02274 12.1023 7.09139 12.1206 7.1613 12.1206C7.23121 12.1206 7.29986 12.1022 7.36021 12.0674L10.3167 10.3831V11.5494V11.5514C10.3167 11.557 10.3154 11.5625 10.3129 11.5676C10.3103 11.5726 10.3066 11.5769 10.3021 11.5804L7.8541 12.9749C7.50773 13.1716 7.11511 13.2752 6.71546 13.2753C6.3154 13.2752 5.92237 13.1714 5.5758 12.9742C5.22923 12.777 4.94128 12.4935 4.74084 12.1519ZM4.10378 6.9358C4.36974 6.47999 4.78969 6.13099 5.29014 5.94986C5.29014 5.97043 5.28895 6.00688 5.28895 6.03218V8.79248L5.28891 8.79474C5.28892 8.86328 5.30731 8.93059 5.34222 8.98985C5.37713 9.04908 5.42731 9.09816 5.48766 9.13212L8.44412 10.8162L7.42063 11.3993C7.41558 11.4026 7.40979 11.4046 7.40377 11.4052C7.39774 11.4057 7.39168 11.4048 7.38611 11.4025L4.9379 10.0067C4.59181 9.80886 4.30448 9.52476 4.10473 9.18288C3.90498 8.84096 3.79981 8.45326 3.79977 8.05861C3.79992 7.66459 3.90466 7.27736 4.10378 6.9358ZM12.5131 8.86667L9.55662 7.18235L10.5802 6.59944C10.5852 6.59615 10.591 6.59414 10.597 6.5936C10.6031 6.59306 10.6091 6.594 10.6147 6.59633L13.0628 7.99091C13.4092 8.18843 13.6969 8.47237 13.8968 8.81425C14.0969 9.15612 14.2022 9.5439 14.2023 9.93864C14.2023 10.8808 13.6064 11.7238 12.7105 12.0492V9.2064C12.7106 9.20532 12.7106 9.20424 12.7106 9.20322C12.7106 9.13494 12.6924 9.06786 12.6577 9.00876C12.623 8.94968 12.5731 8.90066 12.5131 8.86667ZM13.5319 7.35383C13.508 7.33943 13.484 7.32533 13.4599 7.31151L11.0384 5.93135C10.978 5.89663 10.9094 5.87833 10.8395 5.87831C10.7696 5.87833 10.701 5.89663 10.6406 5.93135L7.68409 7.6157V6.44941L7.68405 6.4474C7.68405 6.436 7.68953 6.42528 7.69874 6.41845L10.1467 5.02505C10.493 4.82808 10.8856 4.72439 11.2853 4.72437C12.544 4.72437 13.5647 5.73151 13.5647 6.97343C13.5646 7.10087 13.5536 7.22821 13.5319 7.35383ZM7.12762 9.43254L6.10388 8.84941C6.0985 8.84677 6.09388 8.84286 6.0904 8.83803C6.08693 8.83319 6.08472 8.8276 6.08396 8.82172V6.0321C6.08452 4.79086 7.10524 3.78455 8.36336 3.78455C8.89621 3.78466 9.4122 3.96884 9.82182 4.30513C9.8034 4.31506 9.77124 4.33258 9.74988 4.34535L7.32833 5.72548C7.2679 5.75939 7.21766 5.80849 7.18271 5.86778C7.14775 5.92707 7.12933 5.99443 7.12932 6.06302V6.06524L7.12762 9.43254ZM7.68362 8.24974L9.00036 7.49932L10.3171 8.24923V9.74958L9.00036 10.4995L7.68362 9.74958V8.24974Z" fill="white"/>
</svg>
